<svg width="193" height="60" viewBox="0 0 193 60" fill="none" xmlns="http://www.w3.org/2000/svg">
<rect x="0.5" y="0.5" width="192" height="59" stroke="white"/>
<path d="M20.1074 38.7676C19.3691 38.7676 19 38.5625 19 38.1523C19 37.7305 19.2461 37.5195 19.7383 37.5195C20.4766 37.5195 20.998 37.4082 21.3027 37.1855C21.9004 36.752 22.252 36.0078 22.3574 34.9531C22.3809 34.707 22.4043 34.332 22.4277 33.8281C22.4629 33.3242 22.498 32.7383 22.5332 32.0703C22.5801 31.3906 22.6211 30.6465 22.6562 29.8379C22.6914 29.0176 22.7266 28.1797 22.7617 27.3242C22.8086 26.457 22.8496 25.5898 22.8848 24.7227C22.9199 23.8555 22.9492 23.0293 22.9727 22.2441C23.0312 20.2871 23.0605 19.0508 23.0605 18.5352C23.0605 18.0195 23.0195 17.6152 22.9375 17.3223C22.8672 17.0293 22.7617 16.7891 22.6211 16.6016C22.3633 16.2734 21.9473 16.0684 21.373 15.9863C20.3652 15.8457 19.8613 15.6289 19.8613 15.3359C19.8613 15.1367 19.9316 14.9785 20.0723 14.8613C20.2246 14.7324 20.418 14.668 20.6523 14.668L23.4121 14.9141L24.959 14.8438C25.2402 14.8438 25.4746 14.9668 25.6621 15.2129C25.8496 15.4473 26.0605 15.7988 26.2949 16.2676L34.8027 33.8984C35.002 33.4414 35.2656 32.8379 35.5938 32.0879C35.9219 31.3379 36.2793 30.5059 36.666 29.5918C37.0645 28.6777 37.4863 27.7109 37.9316 26.6914C38.377 25.6719 38.8164 24.6582 39.25 23.6504C39.6836 22.6426 40.0996 21.6758 40.498 20.75C40.8965 19.8242 41.248 19.0039 41.5527 18.2891C41.8574 17.5625 42.1094 16.9707 42.3086 16.5137C42.5078 16.0566 42.6426 15.7344 42.7129 15.5469C42.7949 15.3477 42.9473 15.166 43.1699 15.002C43.3926 14.8379 43.6562 14.7559 43.9609 14.7559L45.6133 14.8262L47.7227 14.668C48.6016 14.668 49.041 14.8848 49.041 15.3184C49.041 15.5293 48.8477 15.6758 48.4609 15.7578C48.0742 15.8281 47.7461 15.8926 47.4766 15.9512C47.207 16.0098 46.9551 16.0977 46.7207 16.2148C46.1816 16.5078 45.9121 16.9941 45.9121 17.6738L46.8086 34.8828C46.9023 36.3945 47.4707 37.25 48.5137 37.4492C48.8066 37.4961 49.0938 37.5195 49.375 37.5195C49.8789 37.5195 50.1309 37.7305 50.1309 38.1523C50.1309 38.5625 49.7617 38.7676 49.0234 38.7676C48.7305 38.7676 48.4785 38.75 48.2676 38.7148C48.0566 38.6914 47.8457 38.668 47.6348 38.6445C47.002 38.5508 46.4277 38.5039 45.9121 38.5039L42.168 38.7676C41.4062 38.7676 41.0254 38.5508 41.0254 38.1172C41.0254 37.7539 41.3008 37.5723 41.8516 37.5723C42.4023 37.5723 42.8008 37.5312 43.0469 37.4492C43.3047 37.3555 43.4922 37.2148 43.6094 37.0273C43.7734 36.7461 43.8555 36.084 43.8555 35.041V33.3887C43.8555 32.5918 43.7969 30.9746 43.6797 28.5371C43.5625 26.0996 43.4805 24.3594 43.4336 23.3164C43.3398 21.1133 43.252 19.4434 43.1699 18.3066L34.8555 37.3613C34.5508 38.0527 34.2754 38.3984 34.0293 38.3984C33.8652 38.3984 33.7246 38.3164 33.6074 38.1523C33.502 37.9766 33.3555 37.7012 33.168 37.3262L24.6602 19.8008C24.2148 25.7656 23.9922 31.2207 23.9922 36.166C23.9922 37.127 24.7715 37.6074 26.3301 37.6074C26.752 37.6074 26.9629 37.7773 26.9629 38.1172C26.9629 38.5508 26.582 38.7676 25.8203 38.7676L22.9727 38.5039C22.375 38.5039 21.8125 38.5449 21.2852 38.627C20.7578 38.7207 20.3652 38.7676 20.1074 38.7676ZM43.6973 17.0938L43.7148 17.0762L43.6973 17.0938Z" fill="white"/>
<path d="M65.3036 22.0684C65.7841 22.0684 66.0243 22.2148 66.0243 22.5078C66.0243 22.7539 65.8016 22.959 65.3563 23.123C64.9227 23.2754 64.5887 23.4219 64.3544 23.5625C64.12 23.6914 63.9032 23.8789 63.704 24.125C63.2938 24.6289 62.8602 25.502 62.4032 26.7441L59.7665 33.916C57.5048 40.0801 55.87 43.7891 54.8622 45.043C53.8661 46.3086 52.6825 46.9414 51.3114 46.9414C50.3622 46.9414 49.6766 46.8125 49.2548 46.5547C48.5516 46.1094 48.2001 45.6523 48.2001 45.1836C48.2001 44.8555 48.3173 44.5859 48.5516 44.375C48.9384 44.0117 49.2899 43.8301 49.6063 43.8301C49.9345 43.8301 50.2216 43.8828 50.4677 43.9883C50.7137 44.1055 50.9481 44.2285 51.1708 44.3574C51.4052 44.498 51.6161 44.6211 51.8036 44.7266C51.9911 44.8438 52.161 44.9023 52.3134 44.9023C52.4657 44.9023 52.6239 44.8906 52.788 44.8672C52.9637 44.8438 53.1512 44.7617 53.3505 44.6211C53.5497 44.4922 53.7665 44.2871 54.0009 44.0059C54.2352 43.7246 54.493 43.332 54.7743 42.8281C55.3954 41.6914 56.0927 40.0859 56.8661 38.0117C56.3622 37.6367 55.5653 36.2832 54.4755 33.9512L50.5907 25.373C50.2391 24.6113 49.9696 24.125 49.7821 23.9141C49.4774 23.5273 49.0673 23.2754 48.5516 23.1582C48.0477 23.0293 47.7958 22.8066 47.7958 22.4902C47.7958 22.3848 47.8602 22.291 47.9891 22.209C48.1063 22.1152 48.2821 22.0684 48.5165 22.0684L51.2411 22.2617C51.9559 22.2617 52.495 22.2383 52.8583 22.1914C53.4794 22.1094 53.9891 22.0684 54.3876 22.0684C55.1845 22.0684 55.5829 22.2383 55.5829 22.5781C55.5829 22.9297 55.1141 23.1289 54.1766 23.1758C53.579 23.2109 53.2391 23.3691 53.1571 23.6504C53.1337 23.7324 53.122 23.8203 53.122 23.9141C53.122 24.0664 53.2977 24.5234 53.6493 25.2852L57.9384 34.9707C57.9501 34.9707 57.9559 34.959 57.9559 34.9355C57.9559 34.9121 57.9618 34.8887 57.9735 34.8652L60.9618 26.0586C61.1376 25.5312 61.2841 25.0977 61.4012 24.7578C61.5302 24.4062 61.5946 24.1133 61.5946 23.8789C61.5946 23.6328 61.5126 23.4629 61.3485 23.3691C61.1845 23.2754 60.868 23.2109 60.3993 23.1758C59.5204 23.0938 59.0809 22.8887 59.0809 22.5605C59.0809 22.2324 59.4794 22.0684 60.2762 22.0684L63.2645 22.2441L65.3036 22.0684Z" fill="white"/>
<path d="M69.4373 38.7676C68.6755 38.7676 68.2947 38.5508 68.2947 38.1172C68.2947 37.7773 68.5056 37.6074 68.9275 37.6074L69.7888 37.6953C70.492 37.6953 70.9607 37.3027 71.1951 36.5176C71.406 35.8496 71.5115 34.6543 71.5115 32.9316V16.4961H71.0369C68.9861 16.4961 67.3513 16.707 66.1326 17.1289C65.2888 17.4336 64.7146 17.9551 64.4099 18.6934C64.1873 19.2324 63.9529 19.502 63.7068 19.502C63.367 19.502 63.197 19.3027 63.197 18.9043C63.197 18.7871 63.2205 18.6523 63.2673 18.5C63.3259 18.3477 63.3904 18.166 63.4607 17.9551C63.6482 17.3926 63.7595 16.8066 63.7947 16.1973C63.8298 15.5879 63.8943 15.1836 63.988 14.9844C64.0935 14.7734 64.2341 14.668 64.4099 14.668C64.5857 14.668 64.7439 14.6855 64.8845 14.7207C65.0252 14.7441 65.2302 14.7734 65.4998 14.8086C66.2029 14.9023 67.0877 14.9492 68.1541 14.9492H79.2986C80.1658 14.9492 80.7927 14.9023 81.1795 14.8086C81.5779 14.7148 81.865 14.668 82.0408 14.668C82.4275 14.668 82.6209 14.8496 82.6209 15.2129C82.6209 15.4004 82.5857 15.623 82.5154 15.8809C82.3396 16.4551 82.2224 16.9531 82.1638 17.375C82.117 17.7852 82.0701 18.125 82.0232 18.3945C81.9763 18.6523 81.9236 18.8574 81.865 19.0098C81.7712 19.2676 81.6306 19.3965 81.4431 19.3965C81.2556 19.3965 81.1326 19.332 81.074 19.2031C81.0271 19.0625 80.9744 18.7988 80.9158 18.4121C80.8572 18.0254 80.7576 17.709 80.617 17.4629C80.4763 17.2168 80.2888 17.0234 80.0545 16.8828C79.6443 16.625 78.9763 16.4961 78.0505 16.4961H74.2712V32.9316C74.2712 34.7012 74.3474 35.8438 74.4998 36.3594C74.6638 36.8633 74.8572 37.2148 75.0798 37.4141C75.3142 37.6016 75.6189 37.6953 75.9939 37.6953L76.8377 37.6074C77.2595 37.6074 77.4705 37.7773 77.4705 38.1172C77.4705 38.5508 77.0955 38.7676 76.3455 38.7676C75.9587 38.7676 75.5486 38.7324 75.115 38.6621C73.7087 38.4395 72.5017 38.3984 71.4939 38.5391C70.4978 38.6914 69.8123 38.7676 69.4373 38.7676Z" fill="white"/>
<path d="M84.276 36.5352C83.5963 35.7734 83.069 34.877 82.694 33.8457C82.3307 32.8145 82.1491 31.6719 82.1491 30.418C82.1491 29.1523 82.3659 27.9922 82.7995 26.9375C83.233 25.8828 83.8307 24.9805 84.5924 24.2305C86.1745 22.6719 88.1256 21.8926 90.4459 21.8926C92.3678 21.8926 93.9205 22.5254 95.1041 23.791C96.2291 25.0098 96.7916 26.5156 96.7916 28.3086C96.7916 28.8945 96.7096 29.2988 96.5455 29.5215C96.3932 29.7324 96.1998 29.8613 95.9655 29.9082C95.7311 29.9434 95.4088 29.9785 94.9987 30.0137C94.5885 30.0371 94.0905 30.0664 93.5045 30.1016C92.9186 30.1367 92.2623 30.1719 91.5358 30.207C90.8209 30.2422 90.0885 30.2832 89.3385 30.3301C87.6159 30.4355 86.233 30.541 85.1901 30.6465C85.4479 33.7988 86.6549 35.8438 88.8112 36.7812C89.5143 37.0859 90.2643 37.2383 91.0612 37.2383C92.7487 37.2383 94.0846 36.7461 95.069 35.7617C95.4909 35.3398 95.8131 35.1289 96.0358 35.1289C96.4577 35.1289 96.6686 35.3809 96.6686 35.8848C96.6686 36.1426 96.4928 36.4531 96.1413 36.8164C95.7897 37.1797 95.2858 37.5547 94.6295 37.9414C93.4694 38.6094 92.1159 38.9434 90.569 38.9434C89.0221 38.9434 87.7565 38.7324 86.7721 38.3105C85.7995 37.877 84.9674 37.2852 84.276 36.5352ZM85.1549 29.3457C90.651 29.0645 93.5455 28.7656 93.8385 28.4492C93.944 28.332 93.9967 27.9863 93.9967 27.4121C93.9967 26.8379 93.8854 26.2812 93.6627 25.7422C93.4401 25.1914 93.1413 24.7227 92.7663 24.3359C91.9928 23.5508 91.0319 23.1582 89.8834 23.1582C88.5827 23.1582 87.487 23.7031 86.5963 24.793C85.6588 25.9297 85.1784 27.4473 85.1549 29.3457Z" fill="white"/>
<path d="M98.3941 37.5547C97.855 37.168 97.4331 36.7461 97.1284 36.2891C96.8237 35.8203 96.6714 35.457 96.6714 35.1992C96.6714 34.9297 96.7066 34.7305 96.7769 34.6016C96.8589 34.4609 96.9644 34.332 97.0933 34.2148C97.398 33.9219 97.6909 33.7754 97.9722 33.7754C98.2652 33.7754 98.4878 33.8457 98.6402 33.9863C98.7925 34.1152 98.9331 34.3789 99.062 34.7773C99.2027 35.1641 99.396 35.5391 99.6421 35.9023C99.8999 36.2656 100.205 36.582 100.556 36.8516C101.318 37.4258 102.25 37.7129 103.351 37.7129C104.324 37.7129 105.15 37.4727 105.83 36.9922C106.544 36.5 106.902 35.8848 106.902 35.1465C106.902 34.3965 106.58 33.7402 105.935 33.1777C105.244 32.5801 104.218 32.0117 102.859 31.4727C101.5 30.9219 100.533 30.459 99.9585 30.084C99.3843 29.709 98.9155 29.3105 98.5523 28.8887C97.8609 28.0801 97.5152 27.1543 97.5152 26.1113C97.5152 24.916 98.0542 23.9199 99.1323 23.123C100.222 22.3262 101.587 21.9277 103.228 21.9277C104.646 21.9277 105.841 22.2266 106.814 22.8242C107.658 23.3516 108.08 23.9082 108.08 24.4941C108.08 24.7988 107.921 25.0625 107.605 25.2852C107.3 25.4961 107.007 25.6016 106.726 25.6016C106.457 25.6016 106.246 25.5488 106.093 25.4434C105.941 25.3262 105.712 25.0332 105.408 24.5645C104.81 23.6387 103.902 23.1758 102.683 23.1758C101.312 23.1758 100.404 23.5859 99.9585 24.4062C99.8296 24.6406 99.7652 24.8926 99.7652 25.1621C99.7652 25.4316 99.8179 25.6953 99.9234 25.9531C100.041 26.1992 100.251 26.457 100.556 26.7266C101.201 27.2656 102.384 27.8926 104.107 28.6074C107.482 30.002 109.169 31.7891 109.169 33.9688C109.169 35.4336 108.578 36.6289 107.394 37.5547C106.199 38.4805 104.664 38.9434 102.789 38.9434C101.125 38.9434 99.6597 38.4805 98.3941 37.5547Z" fill="white"/>
<path d="M119.016 23.668C119.016 23.9844 118.829 24.1426 118.454 24.1426L113.461 24.0898V33.8281C113.461 35.6445 113.901 36.7227 114.78 37.0625C115.049 37.168 115.366 37.2207 115.729 37.2207C116.092 37.2207 116.42 37.1621 116.713 37.0449C117.018 36.916 117.287 36.7812 117.522 36.6406C117.756 36.5 117.955 36.3711 118.12 36.2539C118.284 36.125 118.436 36.0605 118.577 36.0605C118.729 36.0605 118.864 36.1426 118.981 36.3066C119.098 36.4707 119.157 36.6348 119.157 36.7988C119.157 37.209 118.635 37.7012 117.592 38.2754C116.795 38.7207 115.793 38.9434 114.586 38.9434C113.379 38.9434 112.436 38.5156 111.756 37.6602C111.077 36.793 110.737 35.5977 110.737 34.0742V24.0371H109.664C108.821 24.0371 108.399 23.8203 108.399 23.3867C108.399 23.0703 108.633 22.8535 109.102 22.7363C109.571 22.6191 109.975 22.4141 110.315 22.1211C110.655 21.8164 110.93 21.4766 111.141 21.1016C111.364 20.7148 111.539 20.3164 111.668 19.9062C111.797 19.4961 111.914 19.1211 112.02 18.7812C112.278 18.0078 112.571 17.6211 112.899 17.6211C113.274 17.6211 113.461 17.9551 113.461 18.623V22.5957L118.401 22.4902C118.647 22.4902 118.84 22.7832 118.981 23.3691C119.004 23.498 119.016 23.5977 119.016 23.668Z" fill="white"/>
<path d="M120.829 38.5039C120.232 38.5039 119.669 38.5449 119.142 38.627C118.626 38.7207 118.064 38.7676 117.454 38.7676C116.857 38.7676 116.558 38.5742 116.558 38.1875C116.558 37.7891 116.833 37.5898 117.384 37.5898C117.958 37.5898 118.368 37.4844 118.615 37.2734C119.013 36.9102 119.406 36.3184 119.792 35.498C120.179 34.6777 120.536 33.9102 120.865 33.1953C121.204 32.4805 121.591 31.6484 122.025 30.6992C122.458 29.7383 122.933 28.6719 123.449 27.5C123.976 26.3164 124.527 25.0625 125.101 23.7383C126.601 20.2578 127.591 17.9199 128.072 16.7246C128.552 15.5176 128.816 14.8496 128.863 14.7207C128.921 14.5918 128.98 14.4746 129.038 14.3691C129.191 14.123 129.32 14 129.425 14C129.531 14 129.618 14.0176 129.689 14.0527C129.759 14.0762 129.835 14.1289 129.917 14.2109C130.093 14.4336 130.269 14.7676 130.445 15.2129C130.62 15.6465 130.855 16.2383 131.148 16.9883C131.452 17.7383 131.798 18.5879 132.185 19.5371C132.572 20.4863 132.982 21.5059 133.415 22.5957C133.849 23.6855 134.283 24.7754 134.716 25.8652C135.161 26.9434 135.589 27.9922 135.999 29.0117C136.421 30.0312 136.796 30.9512 137.124 31.7715C138.132 34.2207 138.777 35.6855 139.058 36.166C139.339 36.6465 139.574 36.9805 139.761 37.168C140.054 37.4492 140.488 37.5898 141.062 37.5898C141.636 37.5898 141.923 37.7891 141.923 38.1875C141.923 38.5742 141.554 38.7676 140.816 38.7676C140.499 38.7676 140.224 38.75 139.99 38.7148C139.767 38.6914 139.538 38.668 139.304 38.6445C138.624 38.5508 138.021 38.5039 137.493 38.5039L134.101 38.7676C133.339 38.7676 132.958 38.5508 132.958 38.1172C132.958 37.7656 133.169 37.5898 133.591 37.5898L134.646 37.7129C135.091 37.7129 135.384 37.6191 135.525 37.4316C135.665 37.2324 135.736 36.9863 135.736 36.6934C135.736 36.1426 135.501 35.2871 135.033 34.127L133.574 30.4707H123.818C123.536 31.1738 123.273 31.8184 123.027 32.4043C122.792 32.9902 122.575 33.5586 122.376 34.1094C122.06 35 121.902 35.7031 121.902 36.2188C121.902 36.7227 121.99 37.0977 122.165 37.3438C122.353 37.5781 122.699 37.6953 123.202 37.6953L124.257 37.6074C124.679 37.6074 124.89 37.7773 124.89 38.1172C124.89 38.5508 124.509 38.7676 123.747 38.7676L120.829 38.5039ZM132.976 28.9766L128.792 18.5C127.984 20.5508 126.536 24.043 124.45 28.9766H132.976Z" fill="white"/>
<path d="M140.414 44.6738L141.891 44.7969C142.043 44.7969 142.166 44.7617 142.26 44.6914C142.354 44.6211 142.43 44.457 142.488 44.1992C142.594 43.7305 142.647 42.6992 142.647 41.1055V27.6582C142.647 26.5566 142.559 25.8418 142.383 25.5137C142.207 25.1738 142.02 24.9453 141.82 24.8281C141.621 24.7109 141.299 24.6172 140.854 24.5469C140.42 24.4766 140.203 24.2949 140.203 24.002C140.203 23.7324 140.502 23.5391 141.1 23.4219C142.506 23.1289 143.473 22.8301 144 22.5254C144.715 22.127 145.195 21.9277 145.442 21.9277C145.711 21.9277 145.846 22.0625 145.846 22.332C145.846 22.4609 145.817 22.5957 145.758 22.7363C145.711 22.877 145.658 23.041 145.6 23.2285C145.518 23.5332 145.453 24.1133 145.406 24.9688C146.836 22.9414 148.641 21.9277 150.82 21.9277C153.035 21.9277 154.799 22.7188 156.111 24.3008C157.377 25.8359 158.01 27.8281 158.01 30.2773C158.01 32.6797 157.225 34.7188 155.654 36.3945C154.072 38.0938 152.115 38.9434 149.783 38.9434C148.096 38.9434 146.625 38.498 145.371 37.6074V41.1055C145.371 43.3203 145.465 44.5156 145.652 44.6914C145.735 44.7617 145.84 44.7969 145.969 44.7969L148.324 44.6035C148.559 44.6035 148.746 44.6738 148.887 44.8145C149.027 44.9668 149.098 45.125 149.098 45.2891C149.098 45.793 148.67 46.0449 147.815 46.0449L144.106 45.7812C143.508 45.7812 142.94 45.8223 142.401 45.9043C141.873 45.998 141.387 46.0449 140.942 46.0449C140.496 46.0449 140.186 45.9629 140.01 45.7988C139.846 45.6465 139.764 45.4824 139.764 45.3066C139.764 45.1309 139.822 44.9785 139.94 44.8496C140.057 44.7324 140.215 44.6738 140.414 44.6738ZM145.371 34.6191C146.063 36.0488 147.205 36.9863 148.799 37.4316C149.303 37.5723 149.842 37.6426 150.416 37.6426C150.99 37.6426 151.565 37.5195 152.139 37.2734C152.725 37.0156 153.235 36.623 153.668 36.0957C154.617 34.9355 155.092 33.3184 155.092 31.2441C155.092 28.9355 154.594 27.0898 153.598 25.707C152.66 24.3945 151.483 23.7383 150.065 23.7383C148.611 23.7383 147.334 24.3711 146.233 25.6367C145.893 26.0352 145.606 26.4805 145.371 26.9727V34.6191Z" fill="white"/>
<path d="M158.101 44.6738L159.577 44.7969C159.73 44.7969 159.853 44.7617 159.946 44.6914C160.04 44.6211 160.116 44.457 160.175 44.1992C160.28 43.7305 160.333 42.6992 160.333 41.1055V27.6582C160.333 26.5566 160.245 25.8418 160.069 25.5137C159.894 25.1738 159.706 24.9453 159.507 24.8281C159.308 24.7109 158.985 24.6172 158.54 24.5469C158.106 24.4766 157.89 24.2949 157.89 24.002C157.89 23.7324 158.189 23.5391 158.786 23.4219C160.192 23.1289 161.159 22.8301 161.687 22.5254C162.401 22.127 162.882 21.9277 163.128 21.9277C163.397 21.9277 163.532 22.0625 163.532 22.332C163.532 22.4609 163.503 22.5957 163.444 22.7363C163.397 22.877 163.345 23.041 163.286 23.2285C163.204 23.5332 163.14 24.1133 163.093 24.9688C164.522 22.9414 166.327 21.9277 168.507 21.9277C170.722 21.9277 172.485 22.7188 173.798 24.3008C175.064 25.8359 175.696 27.8281 175.696 30.2773C175.696 32.6797 174.911 34.7188 173.341 36.3945C171.759 38.0938 169.802 38.9434 167.47 38.9434C165.782 38.9434 164.312 38.498 163.058 37.6074V41.1055C163.058 43.3203 163.151 44.5156 163.339 44.6914C163.421 44.7617 163.526 44.7969 163.655 44.7969L166.011 44.6035C166.245 44.6035 166.433 44.6738 166.573 44.8145C166.714 44.9668 166.784 45.125 166.784 45.2891C166.784 45.793 166.356 46.0449 165.501 46.0449L161.792 45.7812C161.194 45.7812 160.626 45.8223 160.087 45.9043C159.56 45.998 159.073 46.0449 158.628 46.0449C158.183 46.0449 157.872 45.9629 157.696 45.7988C157.532 45.6465 157.45 45.4824 157.45 45.3066C157.45 45.1309 157.509 44.9785 157.626 44.8496C157.743 44.7324 157.901 44.6738 158.101 44.6738ZM163.058 34.6191C163.749 36.0488 164.892 36.9863 166.485 37.4316C166.989 37.5723 167.528 37.6426 168.103 37.6426C168.677 37.6426 169.251 37.5195 169.825 37.2734C170.411 37.0156 170.921 36.623 171.355 36.0957C172.304 34.9355 172.778 33.3184 172.778 31.2441C172.778 28.9355 172.28 27.0898 171.284 25.707C170.347 24.3945 169.169 23.7383 167.751 23.7383C166.298 23.7383 165.021 24.3711 163.919 25.6367C163.579 26.0352 163.292 26.4805 163.058 26.9727V34.6191Z" fill="white"/>
</svg>
